# xmcd
#
# Track frame offsets:
#	183
#	10778
#	21508
#	31798
#	42483
#	51030
#	62823
#	73820
#	82970
#	91648
#	102408
#	111913
#	121148
#	130255
#	140275
#	149560
#	157043
#
# Disc length: 2216 seconds
#
# Revision: 2
# Processed by: cddbd v1.5.1PL2 Copyright (c) Steve Scherf et al.
# Submitted via: audiograbber 1.83.01
#
DISCID=e908a611
DTITLE=Fats Domino - 16 Greatest hits
DYEAR=1988
DGENRE=Pop
TTITLE0=Blueberry hill
TTITLE1=I want to walk you home
TTITLE2=Blue monday
TTITLE3=Jambalaya
TTITLE4=The fat man
TTITLE5=Red sails in the sunset
TTITLE6=Ain't that a shame
TTITLE7=Let the four winds blow
TTITLE8=Walking to New Orleans
TTITLE9=I'm ready
TTITLE10=My blue heaven
TTITLE11=I'm gonna be a wheel someday
TTITLE12=Be my guest
TTITLE13=Going' home
TTITLE14=I'm walking
TTITLE15=Whole lotta loving
TTITLE16=I'm in love again (Bonus track)
EXTD=YEAR: 1988
EXTT0=
EXTT1=
EXTT2=
EXTT3=
EXTT4=
EXTT5=
EXTT6=
EXTT7=
EXTT8=
EXTT9=
EXTT10=
EXTT11=
EXTT12=
EXTT13=
EXTT14=
EXTT15=
EXTT16=
PLAYORDER=
